# xmcd CD database file
#
# Track frame offsets:
#	150
#	16283
#	29927
#	44125
#	58042
#	72571
#	91306
#	106237
#	125501
#	144012
#	169326
#	188064
#
# Disc length: 2724 seconds
#
# Revision: 0
# Processed by: cddbd v1.5.1PL0 Copyright (c) Steve Scherf et al.
# Submitted via: CDex 1.51
#
DISCID=af0aa20c
DTITLE=Duke Ellington - Volume 1
DYEAR=202
DGENRE=Jazz
TTITLE0=A slip Of The Lip
TTITLE1=Sentimental Lady
TTITLE2=I'm Beginning to See The Light
TTITLE3=Don't You Know I Care?
TTITLE4=Blue skies
TTITLE5=Rockin' In Rhythm
TTITLE6=Things Ain't What They Used To Be
TTITLE7=Taffy Twist
TTITLE8=Bluetopia
TTITLE9=How High The Moon
TTITLE10=Midriff
TTITLE11=Passion Flower
EXTD=YEAR: 202
EXTT0=
EXTT1=
EXTT2=
EXTT3=
EXTT4=
EXTT5=
EXTT6=
EXTT7=
EXTT8=
EXTT9=
EXTT10=
EXTT11=
PLAYORDER=
